# WaveFront *.obj file (generated by CINEMA 4D)

mtllib ./tvshr.mtl

v 143.53501892089844 58.83181381225586 190.70944213867188
v 143.53501892089844 61.33181381225586 190.70944213867188
v 32.49383544921875 58.83181381225586 190.70944213867188
v 32.49383544921875 61.33181381225586 190.70944213867188
v 32.49383544921875 58.83181381225586 214.11860656738281
v 32.49383544921875 61.33181381225586 214.11860656738281
v 143.53501892089844 58.83181381225586 214.11860656738281
v 143.53501892089844 61.33181381225586 214.11860656738281
# 8 vertices

vn 0 0 -1
vn 0 0 -1
vn 0 0 -1
vn 0 0 -1
vn -1 0 0
vn -1 0 0
vn -1 0 0
vn -1 0 0
vn 0 0 1
vn 0 0 1
vn 0 0 1
vn 0 0 1
vn 1 0 0
vn 1 0 0
vn 1 0 0
vn 1 0 0
vn 0 1 0
vn 0 1 0
vn 0 1 0
vn 0 1 0
vn 0 -1 0
vn 0 -1 0
vn 0 -1 0
vn 0 -1 0
# 24 normals

vt 0 0 0
vt 0 1 0
vt 1 1 0
vt 1 0 0
vt 0 0 0
vt 0 1 0
vt 1 1 0
vt 1 0 0
vt 0 0 0
vt 0 1 0
vt 1 1 0
vt 1 0 0
vt 0 0 0
vt 0 1 0
vt 1 1 0
vt 1 0 0
vt 0 0 0
vt 0 1 0
vt 1 1 0
vt 1 0 0
vt 0 0 0
vt 0 1 0
vt 1 1 0
vt 1 0 0
# 24 texture coordinates

g W端rfel.3
usemtl default
f 3/4/1 4/3/1 2/2/1 1/1/1
f 5/4/5 6/3/5 4/2/5 3/1/5
f 7/4/9 8/3/9 6/2/9 5/1/9
f 1/4/13 2/3/13 8/2/13 7/1/13
f 4/4/17 6/3/17 8/2/17 2/1/17
f 5/4/21 3/3/21 1/2/21 7/1/21

v 143.53501892089844 78.94877624511719 190.70944213867188
v 143.53501892089844 81.44877624511719 190.70944213867188
v 32.49383544921875 78.94877624511719 190.70944213867188
v 32.49383544921875 81.44877624511719 190.70944213867188
v 32.49383544921875 78.94877624511719 214.11860656738281
v 32.49383544921875 81.44877624511719 214.11860656738281
v 143.53501892089844 78.94877624511719 214.11860656738281
v 143.53501892089844 81.44877624511719 214.11860656738281
# 8 vertices

vn 0 0 -1
vn 0 0 -1
vn 0 0 -1
vn 0 0 -1
vn -1 0 0
vn -1 0 0
vn -1 0 0
vn -1 0 0
vn 0 0 1
vn 0 0 1
vn 0 0 1
vn 0 0 1
vn 1 0 0
vn 1 0 0
vn 1 0 0
vn 1 0 0
vn 0 1 0
vn 0 1 0
vn 0 1 0
vn 0 1 0
vn 0 -1 0
vn 0 -1 0
vn 0 -1 0
vn 0 -1 0
# 24 normals

vt 0 0 0
vt 0 1 0
vt 1 1 0
vt 1 0 0
vt 0 0 0
vt 0 1 0
vt 1 1 0
vt 1 0 0
vt 0 0 0
vt 0 1 0
vt 1 1 0
vt 1 0 0
vt 0 0 0
vt 0 1 0
vt 1 1 0
vt 1 0 0
vt 0 0 0
vt 0 1 0
vt 1 1 0
vt 1 0 0
vt 0 0 0
vt 0 1 0
vt 1 1 0
vt 1 0 0
# 24 texture coordinates

g W端rfel.2
usemtl default
f 11/4/1 12/3/1 10/2/1 9/1/1
f 13/4/5 14/3/5 12/2/5 11/1/5
f 15/4/9 16/3/9 14/2/9 13/1/9
f 9/4/13 10/3/13 16/2/13 15/1/13
f 12/4/17 14/3/17 16/2/17 10/1/17
f 13/4/21 11/3/21 9/2/21 15/1/21

v 143.53501892089844 98.80104064941406 190.70944213867188
v 143.53501892089844 101.30104064941406 190.70944213867188
v 32.49383544921875 98.80104064941406 190.70944213867188
v 32.49383544921875 101.30104064941406 190.70944213867188
v 32.49383544921875 98.80104064941406 214.11860656738281
v 32.49383544921875 101.30104064941406 214.11860656738281
v 143.53501892089844 98.80104064941406 214.11860656738281
v 143.53501892089844 101.30104064941406 214.11860656738281
# 8 vertices

vn 0 0 -1
vn 0 0 -1
vn 0 0 -1
vn 0 0 -1
vn -1 0 0
vn -1 0 0
vn -1 0 0
vn -1 0 0
vn 0 0 1
vn 0 0 1
vn 0 0 1
vn 0 0 1
vn 1 0 0
vn 1 0 0
vn 1 0 0
vn 1 0 0
vn 0 1 0
vn 0 1 0
vn 0 1 0
vn 0 1 0
vn 0 -1 0
vn 0 -1 0
vn 0 -1 0
vn 0 -1 0
# 24 normals

vt 0 0 0
vt 0 1 0
vt 1 1 0
vt 1 0 0
vt 0 0 0
vt 0 1 0
vt 1 1 0
vt 1 0 0
vt 0 0 0
vt 0 1 0
vt 1 1 0
vt 1 0 0
vt 0 0 0
vt 0 1 0
vt 1 1 0
vt 1 0 0
vt 0 0 0
vt 0 1 0
vt 1 1 0
vt 1 0 0
vt 0 0 0
vt 0 1 0
vt 1 1 0
vt 1 0 0
# 24 texture coordinates

g W端rfel
usemtl default
f 19/4/1 20/3/1 18/2/1 17/1/1
f 21/4/5 22/3/5 20/2/5 19/1/5
f 23/4/9 24/3/9 22/2/9 21/1/9
f 17/4/13 18/3/13 24/2/13 23/1/13
f 20/4/17 22/3/17 24/2/17 18/1/17
f 21/4/21 19/3/21 17/2/21 23/1/21

v 249.12709045410156 -115 185.18905639648438
v 249.12709045410156 -76.66666412353516 185.18905639648438
v 249.12709045410156 -38.33333206176758 185.18905639648438
v 249.12709045410156 -0.00000000000001 185.18905639648438
v 249.12709045410156 38.33333206176758 185.18905639648438
v 249.12709045410156 76.66666412353516 185.18905639648438
v 249.12709045410156 115 185.18905639648438
v 195.27119445800781 -115 185.18905639648438
v 195.27119445800781 -76.66666412353516 185.18905639648438
v 195.27119445800781 -38.33333206176758 185.18905639648438
v 195.27119445800781 -0.00000000000001 185.18905639648438
v 195.27119445800781 38.33333206176758 185.18905639648438
v 195.27119445800781 76.66666412353516 185.18905639648438
v 195.27119445800781 115 185.18905639648438
v 141.41531372070312 -115 185.18905639648438
v 141.41531372070312 -76.66666412353516 185.18905639648438
v 141.41531372070312 -38.33333206176758 185.18905639648438
v 141.41531372070312 -0.00000000000001 185.18905639648438
v 141.41531372070312 38.33333206176758 185.18905639648438
v 141.41531372070312 76.66666412353516 185.18905639648438
v 141.41531372070312 115 185.18905639648438
v 87.55943298339844 -115 185.18905639648438
v 87.55943298339844 -76.66666412353516 185.18905639648438
v 87.55943298339844 -38.33333206176758 185.18905639648438
v 87.55943298339844 -0.00000000000001 185.18905639648438
v 87.55943298339844 38.33333206176758 185.18905639648438
v 87.55943298339844 76.66666412353516 185.18905639648438
v 87.55943298339844 115 185.18905639648438
v 33.70354843139648 -115 185.18905639648438
v 33.70354843139648 -76.66666412353516 185.18905639648438
v 33.70354843139648 -38.33333206176758 185.18905639648438
v 33.70354843139648 -0.00000000000001 185.18905639648438
v 33.70354843139648 38.33333206176758 185.18905639648438
v 33.70354843139648 76.66666412353516 185.18905639648438
v 33.70354843139648 115 185.18905639648438
v -20.15233612060547 -115 185.18905639648438
v -20.15233612060547 -76.66666412353516 185.18905639648438
v -20.15233612060547 -38.33333206176758 185.18905639648438
v -20.15233612060547 -0.00000000000001 185.18905639648438
v -20.15233612060547 38.33333206176758 185.18905639648438
v -20.15233612060547 76.66666412353516 185.18905639648438
v -20.15233612060547 115 185.18905639648438
v -74.00821685791016 -115 185.18905639648438
v -74.00821685791016 -76.66666412353516 185.18905639648438
v -74.00821685791016 -38.33333206176758 185.18905639648438
v -74.00821685791016 -0.00000000000001 185.18905639648438
v -74.00821685791016 38.33333206176758 185.18905639648438
v -74.00821685791016 76.66666412353516 185.18905639648438
v -74.00821685791016 115 185.18905639648438
v -74.00821685791016 -115 215.18905639648438
v -74.00821685791016 -76.66666412353516 215.18905639648438
v -74.00821685791016 -38.33333206176758 215.18905639648438
v -74.00821685791016 -0.00000000000001 215.18905639648438
v -74.00821685791016 38.33333206176758 215.18905639648438
v -74.00821685791016 76.66666412353516 215.18905639648438
v -74.00821685791016 115 215.18905639648438
v -20.15233612060547 -115 215.18905639648438
v -20.15233612060547 -76.66666412353516 215.18905639648438
v -20.15233612060547 -38.33333206176758 215.18905639648438
v -20.15233612060547 -0.00000000000001 215.18905639648438
v -20.15233612060547 38.33333206176758 215.18905639648438
v -20.15233612060547 76.66666412353516 215.18905639648438
v -20.15233612060547 115 215.18905639648438
v 33.70354843139648 -115 215.18905639648438
v 33.70354843139648 -76.66666412353516 215.18905639648438
v 33.70354843139648 -38.33333206176758 215.18905639648438
v 33.70354843139648 -0.00000000000001 215.18905639648438
v 33.70354843139648 38.33333206176758 215.18905639648438
v 33.70354843139648 76.66666412353516 215.18905639648438
v 33.70354843139648 115 215.18905639648438
v 87.55943298339844 -115 215.18905639648438
v 87.55943298339844 -76.66666412353516 215.18905639648438
v 87.55943298339844 -38.33333206176758 215.18905639648438
v 87.55943298339844 -0.00000000000001 215.18905639648438
v 87.55943298339844 38.33333206176758 215.18905639648438
v 87.55943298339844 76.66666412353516 215.18905639648438
v 87.55943298339844 115 215.18905639648438
v 141.41531372070312 -115 215.18905639648438
v 141.41531372070312 -76.66666412353516 215.18905639648438
v 141.41531372070312 -38.33333206176758 215.18905639648438
v 141.41531372070312 -0.00000000000001 215.18905639648438
v 141.41531372070312 38.33333206176758 215.18905639648438
v 141.41531372070312 76.66666412353516 215.18905639648438
v 141.41531372070312 115 215.18905639648438
v 195.27119445800781 -115 215.18905639648438
v 195.27119445800781 -76.66666412353516 215.18905639648438
v 195.27119445800781 -38.33333206176758 215.18905639648438
v 195.27119445800781 -0.00000000000001 215.18905639648438
v 195.27119445800781 38.33333206176758 215.18905639648438
v 195.27119445800781 76.66666412353516 215.18905639648438
v 195.27119445800781 115 215.18905639648438
v 249.12709045410156 -115 215.18905639648438
v 249.12709045410156 -76.66666412353516 215.18905639648438
v 249.12709045410156 -38.33333206176758 215.18905639648438
v 249.12709045410156 -0.00000000000001 215.18905639648438
v 249.12709045410156 38.33333206176758 215.18905639648438
v 249.12709045410156 76.66666412353516 215.18905639648438
v 249.12709045410156 115 215.18905639648438
# 98 vertices

vn 0 0 -1
vn 0 0 -1
vn 0 0 -1
vn 0 0 -1
vn 0 0 1
vn 0 0 1
vn 0 0 1
vn 0 0 1
vn 0 0 1
vn 0 0 1
vn 0 0 1
vn 0 0 1
vn 1 0 0
vn 1 0 0
vn 1 0 0
vn 1 0 0
vn 1 0 0
vn 1 0 0
vn 1 0 0
vn 1 0 0
vn 0 0 -1
vn 0 0 -1
vn 0 0 -1
vn 0 0 -1
vn 0 0 -1
vn 0 0 -1
vn 0 0 -1
vn 0 0 -1
vn 1 0 0
vn 1 0 0
vn 1 0 0
vn 1 0 0
vn 1 0 0
vn 1 0 0
vn 1 0 0
vn 1 0 0
vn 1 0 0
vn 1 0 0
vn 1 0 0
vn 1 0 0
vn 1 0 0
vn 1 0 0
vn 1 0 0
vn 1 0 0
vn 0 0 -1
vn 0 0 -1
vn 0 0 -1
vn 0 0 -1
vn 0 0 -1
vn 0 0 -1
vn 0 0 -1
vn 0 0 -1
vn 0 1 0
vn 0 1 0
vn 0 1 0
vn 0 1 0
vn 0 1 0
vn 0 1 0
vn 0 1 0
vn 0 1 0
vn -1 0 0
vn -1 0 0
vn -1 0 0
vn -1 0 0
vn 1 0 0
vn 1 0 0
vn 1 0 0
vn 1 0 0
vn 0 0 -1
vn 0 0 -1
vn 0 0 -1
vn 0 0 -1
vn 0 0 -1
vn 0 0 -1
vn 0 0 -1
vn 0 0 -1
vn 0 1 0
vn 0 1 0
vn 0 1 0
vn 0 1 0
vn 0 1 0
vn 0 1 0
vn 0 1 0
vn 0 1 0
vn 0 -1 0
vn 0 -1 0
vn 0 -1 0
vn 0 -1 0
vn -1 0 0
vn -1 0 0
vn -1 0 0
vn -1 0 0
vn 0 0 -1
vn 0 0 -1
vn 0 0 -1
vn 0 0 -1
vn 0 0 -1
vn 0 0 -1
vn 0 0 -1
vn 0 0 -1
vn 0 0 -1
vn 0 0 -1
vn 0 0 -1
vn 0 0 -1
vn 1 0 0
vn 1 0 0
vn 1 0 0
vn 1 0 0
vn 0 -1 0
vn 0 -1 0
vn 0 -1 0
vn 0 -1 0
vn 0 0 -1
vn 0 0 -1
vn 0 0 -1
vn 0 0 -1
vn 0 0 -1
vn 0 0 -1
vn 0 0 -1
vn 0 0 -1
vn 0 0 -1
vn 0 0 -1
vn 0 0 -1
vn 0 0 -1
vn 0 0 -1
vn 0 0 -1
vn 0 0 -1
vn 0 0 -1
vn 0 -1 0
vn 0 -1 0
vn 0 -1 0
vn 0 -1 0
vn 0 -1 0
vn 0 -1 0
vn 0 -1 0
vn 0 -1 0
vn 0 0 -1
vn 0 0 -1
vn 0 0 -1
vn 0 0 -1
vn 0 0 -1
vn 0 0 -1
vn 0 0 -1
vn 0 0 -1
vn -1 0 0
vn -1 0 0
vn -1 0 0
vn -1 0 0
vn -1 0 0
vn -1 0 0
vn -1 0 0
vn -1 0 0
vn -1 0 0
vn -1 0 0
vn -1 0 0
vn -1 0 0
vn -1 0 0
vn -1 0 0
vn -1 0 0
vn -1 0 0
vn -1 0 0
vn -1 0 0
vn -1 0 0
vn -1 0 0
vn -1 0 0
vn -1 0 0
vn -1 0 0
vn -1 0 0
vn 0 0 1
vn 0 0 1
vn 0 0 1
vn 0 0 1
vn 0 0 1
vn 0 0 1
vn 0 0 1
vn 0 0 1
vn 0 0 1
vn 0 0 1
vn 0 0 1
vn 0 0 1
vn 0 0 1
vn 0 0 1
vn 0 0 1
vn 0 0 1
vn 0 0 1
vn 0 0 1
vn 0 0 1
vn 0 0 1
vn 0 0 1
vn 0 0 1
vn 0 0 1
vn 0 0 1
vn 0 0 1
vn 0 0 1
vn 0 0 1
vn 0 0 1
vn 0 0 1
vn 0 0 1
vn 0 0 1
vn 0 0 1
vn 0 0 1
vn 0 0 1
vn 0 0 1
vn 0 0 1
vn 0 0 1
vn 0 0 1
vn 0 0 1
vn 0 0 1
vn 0 0 1
vn 0 0 1
vn 0 0 1
vn 0 0 1
vn 0 0 1
vn 0 0 1
vn 0 0 1
vn 0 0 1
vn 0 0 1
vn 0 0 1
vn 0 0 1
vn 0 0 1
vn 0 0 1
vn 0 0 1
vn 0 0 1
vn 0 0 1
vn 0 0 1
vn 0 0 1
vn 0 0 1
vn 0 0 1
vn 0 0 1
vn 0 0 1
vn 0 0 1
vn 0 0 1
vn 0 0 1
vn 0 0 1
vn 0 0 1
vn 0 0 1
vn 0 0 1
vn 0 0 1
vn 0 0 1
vn 0 0 1
vn 0 0 1
vn 0 0 1
vn 0 0 1
vn 0 0 1
vn 0 0 1
vn 0 0 1
vn 0 0 1
vn 0 0 1
vn 0 0 1
vn 0 0 1
vn 0 0 1
vn 0 0 1
vn 0 0 1
vn 0 0 1
vn 0 0 1
vn 0 0 1
vn 0 0 1
vn 0 0 1
vn 0 0 1
vn 0 0 1
vn 0 0 1
vn 0 0 1
vn 0 0 1
vn 0 0 1
vn 0 0 1
vn 0 0 1
vn 0 0 1
vn 0 0 1
vn 0 0 1
vn 0 0 1
vn 0 0 1
vn 0 0 1
vn 0 0 1
vn 0 0 1
vn 0 0 1
vn 0 0 1
vn 0 0 1
vn 0 0 1
vn 0 0 1
vn 0 0 1
vn 0 0 1
vn 0 0 1
vn 0 0 1
vn 0 0 1
vn 0 0 1
vn 0 0 1
vn 0 0 1
vn 0 0 1
vn 0 0 1
vn 0 0 1
vn 0 0 1
vn 0 0 1
vn 0 0 1
vn 0 0 1
vn 0 0 1
vn 0 0 1
vn 0 0 1
vn 0 0 1
vn 0 0 1
vn 0 0 1
vn 0 0 1
vn 0 0 1
vn 0 0 1
vn 0 0 1
# 304 normals

vt 0 0 0
vt 0 0.16666674613953 0
vt 0.16666667163372 0.16666674613953 0
vt 0.16666667163372 0 0
vt 0.66666668653488 0.83333337306976 0
vt 0.66666668653488 1 0
vt 0.83333331346512 1 0
vt 0.83333331346512 0.83333337306976 0
vt 0.83333331346512 0.83333337306976 0
vt 0.83333331346512 1 0
vt 1 1 0
vt 1 0.83333337306976 0
vt 0 0 0
vt 0 0.16666674613953 0
vt 1 0.16666674613953 0
vt 1 0 0
vt 0 0.16666674613953 0
vt 0 0.33333337306976 0
vt 1 0.33333337306976 0
vt 1 0.16666674613953 0
vt 0.83333331346512 0 0
vt 0.83333331346512 0.16666674613953 0
vt 1 0.16666674613953 0
vt 1 0 0
vt 0 0.16666674613953 0
vt 0 0.33333337306976 0
vt 0.16666667163372 0.33333337306976 0
vt 0.16666667163372 0.16666674613953 0
vt 0 0.33333337306976 0
vt 0 0.5 0
vt 1 0.5 0
vt 1 0.33333337306976 0
vt 0 0.5 0
vt 0 0.66666668653488 0
vt 1 0.66666668653488 0
vt 1 0.5 0
vt 0 0.66666668653488 0
vt 0 0.83333337306976 0
vt 1 0.83333337306976 0
vt 1 0.66666668653488 0
vt 0 0.83333337306976 0
vt 0 1 0
vt 1 1 0
vt 1 0.83333337306976 0
vt 0.83333331346512 0.16666674613953 0
vt 0.83333331346512 0.33333337306976 0
vt 1 0.33333337306976 0
vt 1 0.16666674613953 0
vt 0 0.33333337306976 0
vt 0 0.5 0
vt 0.16666667163372 0.5 0
vt 0.16666667163372 0.33333337306976 0
vt 0 0 0
vt 0 1 0
vt 0.16666667163372 1 0
vt 0.16666667163372 0 0
vt 0.16666667163372 0 0
vt 0.16666667163372 1 0
vt 0.33333334326744 1 0
vt 0.33333334326744 0 0
vt 0 1 0
vt 1 1 0
vt 1 0 0
vt 0 0 0
vt 0 1 0
vt 1 1 0
vt 1 0 0
vt 0 0 0
vt 0.83333331346512 0.33333337306976 0
vt 0.83333331346512 0.5 0
vt 1 0.5 0
vt 1 0.33333337306976 0
vt 0 0.5 0
vt 0 0.66666668653488 0
vt 0.16666667163372 0.66666668653488 0
vt 0.16666667163372 0.5 0
vt 0.66666668653488 0 0
vt 0.66666668653488 1 0
vt 0.83333331346512 1 0
vt 0.83333331346512 0 0
vt 0.83333331346512 0 0
vt 0.83333331346512 1 0
vt 1 1 0
vt 1 0 0
vt 0 0 0
vt 0 1 0
vt 0.16666667163372 1 0
vt 0.16666667163372 0 0
vt 0 1 0
vt 1 1 0
vt 1 0 0
vt 0 0 0
vt 0.83333331346512 0.5 0
vt 0.83333331346512 0.66666668653488 0
vt 1 0.66666668653488 0
vt 1 0.5 0
vt 0 0.66666668653488 0
vt 0 0.83333337306976 0
vt 0.16666667163372 0.83333337306976 0
vt 0.16666667163372 0.66666668653488 0
vt 0.16666667163372 0.66666668653488 0
vt 0.16666667163372 0.83333337306976 0
vt 0.33333334326744 0.83333337306976 0
vt 0.33333334326744 0.66666668653488 0
vt 0 1 0
vt 1 1 0
vt 1 0 0
vt 0 0 0
vt 0 1 0
vt 1 1 0
vt 1 0 0
vt 0 0 0
vt 0.66666668653488 0.66666668653488 0
vt 0.66666668653488 0.83333337306976 0
vt 0.83333331346512 0.83333337306976 0
vt 0.83333331346512 0.66666668653488 0
vt 0.83333331346512 0.66666668653488 0
vt 0.83333331346512 0.83333337306976 0
vt 1 0.83333337306976 0
vt 1 0.66666668653488 0
vt 0 0.83333337306976 0
vt 0 1 0
vt 0.16666667163372 1 0
vt 0.16666667163372 0.83333337306976 0
vt 0.16666667163372 0.83333337306976 0
vt 0.16666667163372 1 0
vt 0.33333334326744 1 0
vt 0.33333334326744 0.83333337306976 0
vt 0 1 0
vt 1 1 0
vt 1 0 0
vt 0 0 0
vt 0.83333331346512 0 0
vt 0.83333331346512 1 0
vt 1 1 0
vt 1 0 0
vt 0.66666668653488 0.83333337306976 0
vt 0.66666668653488 1 0
vt 0.83333331346512 1 0
vt 0.83333331346512 0.83333337306976 0
vt 0.83333331346512 0.83333337306976 0
vt 0.83333331346512 1 0
vt 1 1 0
vt 1 0.83333337306976 0
vt 0 0 0
vt 0 0.16666674613953 0
vt 1 0.16666674613953 0
vt 1 0 0
vt 0 0.16666674613953 0
vt 0 0.33333337306976 0
vt 1 0.33333337306976 0
vt 1 0.16666674613953 0
vt 0 0.33333337306976 0
vt 0 0.5 0
vt 1 0.5 0
vt 1 0.33333337306976 0
vt 0 0.5 0
vt 0 0.66666668653488 0
vt 1 0.66666668653488 0
vt 1 0.5 0
vt 0 0.66666668653488 0
vt 0 0.83333337306976 0
vt 1 0.83333337306976 0
vt 1 0.66666668653488 0
vt 0 0.83333337306976 0
vt 0 1 0
vt 1 1 0
vt 1 0.83333337306976 0
vt 0 0 0
vt 0 0.16666674613953 0
vt 0.16666667163372 0.16666674613953 0
vt 0.16666667163372 0 0
vt 0.16666667163372 0 0
vt 0.16666667163372 0.16666674613953 0
vt 0.33333334326744 0.16666674613953 0
vt 0.33333334326744 0 0
vt 0.33333334326744 0 0
vt 0.33333334326744 0.16666674613953 0
vt 0.5 0.16666674613953 0
vt 0.5 0 0
vt 0.5 0 0
vt 0.5 0.16666674613953 0
vt 0.66666668653488 0.16666674613953 0
vt 0.66666668653488 0 0
vt 0.66666668653488 0 0
vt 0.66666668653488 0.16666674613953 0
vt 0.83333331346512 0.16666674613953 0
vt 0.83333331346512 0 0
vt 0.83333331346512 0 0
vt 0.83333331346512 0.16666674613953 0
vt 1 0.16666674613953 0
vt 1 0 0
vt 0 0.16666674613953 0
vt 0 0.33333337306976 0
vt 0.16666667163372 0.33333337306976 0
vt 0.16666667163372 0.16666674613953 0
vt 0.16666667163372 0.16666674613953 0
vt 0.16666667163372 0.33333337306976 0
vt 0.33333334326744 0.33333337306976 0
vt 0.33333334326744 0.16666674613953 0
vt 0.33333334326744 0.16666674613953 0
vt 0.33333334326744 0.33333337306976 0
vt 0.5 0.33333337306976 0
vt 0.5 0.16666674613953 0
vt 0.5 0.16666674613953 0
vt 0.5 0.33333337306976 0
vt 0.66666668653488 0.33333337306976 0
vt 0.66666668653488 0.16666674613953 0
vt 0.66666668653488 0.16666674613953 0
vt 0.66666668653488 0.33333337306976 0
vt 0.83333331346512 0.33333337306976 0
vt 0.83333331346512 0.16666674613953 0
vt 0.83333331346512 0.16666674613953 0
vt 0.83333331346512 0.33333337306976 0
vt 1 0.33333337306976 0
vt 1 0.16666674613953 0
vt 0 0.33333337306976 0
vt 0 0.5 0
vt 0.16666667163372 0.5 0
vt 0.16666667163372 0.33333337306976 0
vt 0.16666667163372 0.33333337306976 0
vt 0.16666667163372 0.5 0
vt 0.33333334326744 0.5 0
vt 0.33333334326744 0.33333337306976 0
vt 0.33333334326744 0.33333337306976 0
vt 0.33333334326744 0.5 0
vt 0.5 0.5 0
vt 0.5 0.33333337306976 0
vt 0.5 0.33333337306976 0
vt 0.5 0.5 0
vt 0.66666668653488 0.5 0
vt 0.66666668653488 0.33333337306976 0
vt 0.66666668653488 0.33333337306976 0
vt 0.66666668653488 0.5 0
vt 0.83333331346512 0.5 0
vt 0.83333331346512 0.33333337306976 0
vt 0.83333331346512 0.33333337306976 0
vt 0.83333331346512 0.5 0
vt 1 0.5 0
vt 1 0.33333337306976 0
vt 0 0.5 0
vt 0 0.66666668653488 0
vt 0.16666667163372 0.66666668653488 0
vt 0.16666667163372 0.5 0
vt 0.16666667163372 0.5 0
vt 0.16666667163372 0.66666668653488 0
vt 0.33333334326744 0.66666668653488 0
vt 0.33333334326744 0.5 0
vt 0.33333334326744 0.5 0
vt 0.33333334326744 0.66666668653488 0
vt 0.5 0.66666668653488 0
vt 0.5 0.5 0
vt 0.5 0.5 0
vt 0.5 0.66666668653488 0
vt 0.66666668653488 0.66666668653488 0
vt 0.66666668653488 0.5 0
vt 0.66666668653488 0.5 0
vt 0.66666668653488 0.66666668653488 0
vt 0.83333331346512 0.66666668653488 0
vt 0.83333331346512 0.5 0
vt 0.83333331346512 0.5 0
vt 0.83333331346512 0.66666668653488 0
vt 1 0.66666668653488 0
vt 1 0.5 0
vt 0 0.66666668653488 0
vt 0 0.83333337306976 0
vt 0.16666667163372 0.83333337306976 0
vt 0.16666667163372 0.66666668653488 0
vt 0.16666667163372 0.66666668653488 0
vt 0.16666667163372 0.83333337306976 0
vt 0.33333334326744 0.83333337306976 0
vt 0.33333334326744 0.66666668653488 0
vt 0.33333334326744 0.66666668653488 0
vt 0.33333334326744 0.83333337306976 0
vt 0.5 0.83333337306976 0
vt 0.5 0.66666668653488 0
vt 0.5 0.66666668653488 0
vt 0.5 0.83333337306976 0
vt 0.66666668653488 0.83333337306976 0
vt 0.66666668653488 0.66666668653488 0
vt 0.66666668653488 0.66666668653488 0
vt 0.66666668653488 0.83333337306976 0
vt 0.83333331346512 0.83333337306976 0
vt 0.83333331346512 0.66666668653488 0
vt 0.83333331346512 0.66666668653488 0
vt 0.83333331346512 0.83333337306976 0
vt 1 0.83333337306976 0
vt 1 0.66666668653488 0
vt 0 0.83333337306976 0
vt 0 1 0
vt 0.16666667163372 1 0
vt 0.16666667163372 0.83333337306976 0
vt 0.16666667163372 0.83333337306976 0
vt 0.16666667163372 1 0
vt 0.33333334326744 1 0
vt 0.33333334326744 0.83333337306976 0
vt 0.33333334326744 0.83333337306976 0
vt 0.33333334326744 1 0
vt 0.5 1 0
vt 0.5 0.83333337306976 0
vt 0.5 0.83333337306976 0
vt 0.5 1 0
vt 0.66666668653488 1 0
vt 0.66666668653488 0.83333337306976 0
# 304 texture coordinates

g W端rfel.1
usemtl default
f 32/76/1 33/75/1 26/74/1 25/1/1
f 114/80/9 115/79/9 108/78/9 107/77/9
f 121/84/9 122/3/9 115/79/9 114/80/9
f 25/4/13 26/87/13 117/74/13 116/1/13
f 26/87/13 27/91/13 118/90/13 117/74/13
f 67/4/1 68/87/1 61/94/1 60/93/1
f 33/75/1 34/99/1 27/90/1 26/74/1
f 27/91/13 28/103/13 119/102/13 118/90/13
f 28/103/13 29/107/13 120/106/13 119/102/13
f 29/107/13 30/84/13 121/110/13 120/106/13
f 30/84/13 31/3/13 122/2/13 121/110/13
f 68/87/1 69/91/1 62/118/1 61/94/1
f 34/99/1 35/123/1 28/102/1 27/90/1
f 38/76/17 115/127/17 122/2/17 31/1/17
f 45/132/17 108/131/17 115/127/17 38/76/17
f 113/1/5 36/4/5 32/3/5 109/2/5
f 85/1/13 81/4/13 60/3/13 64/2/13
f 69/91/1 70/103/1 63/142/1 62/118/1
f 35/123/1 36/147/1 29/106/1 28/102/1
f 66/93/17 87/79/17 94/78/17 59/149/17
f 73/4/17 80/3/17 87/79/17 66/93/17
f 109/76/21 32/127/21 25/2/21 116/1/21
f 108/1/5 45/4/5 43/3/5 106/2/5
f 70/103/1 71/107/1 64/166/1 63/142/1
f 36/147/1 37/171/1 30/110/1 29/106/1
f 43/176/1 44/175/1 37/171/1 36/147/1
f 59/1/13 94/4/13 92/3/13 57/2/13
f 43/1/21 36/4/21 113/3/21 106/2/21
f 64/166/1 65/80/1 58/77/1 57/185/1
f 71/107/1 72/84/1 65/80/1 64/166/1
f 37/171/1 38/127/1 31/2/1 30/110/1
f 44/175/1 45/131/1 38/127/1 37/171/1
f 64/1/21 57/4/21 92/3/21 85/2/21
f 74/4/21 67/3/21 60/79/21 81/93/21
f 65/80/1 66/79/1 59/78/1 58/77/1
f 72/84/1 73/3/1 66/79/1 65/80/1
f 74/4/5 75/87/5 68/74/5 67/1/5
f 75/87/5 76/91/5 69/90/5 68/74/5
f 76/91/5 77/103/5 70/102/5 69/90/5
f 77/103/5 78/107/5 71/106/5 70/102/5
f 78/107/5 79/84/5 72/110/5 71/106/5
f 79/84/5 80/3/5 73/2/5 72/110/5
f 81/76/9 82/75/9 75/74/9 74/1/9
f 88/132/9 89/247/9 82/75/9 81/76/9
f 95/252/9 96/251/9 89/247/9 88/132/9
f 102/149/9 103/255/9 96/251/9 95/252/9
f 109/93/9 110/94/9 103/255/9 102/149/9
f 116/4/9 117/87/9 110/94/9 109/93/9
f 82/75/9 83/99/9 76/90/9 75/74/9
f 89/247/9 90/271/9 83/99/9 82/75/9
f 96/251/9 97/275/9 90/271/9 89/247/9
f 103/255/9 104/279/9 97/275/9 96/251/9
f 110/94/9 111/118/9 104/279/9 103/255/9
f 117/87/9 118/91/9 111/118/9 110/94/9
f 83/99/9 84/123/9 77/102/9 76/90/9
f 90/271/9 91/295/9 84/123/9 83/99/9
f 97/275/9 98/299/9 91/295/9 90/271/9
f 104/279/9 105/303/9 98/299/9 97/275/9
f 111/118/9 112/142/9 105/303/9 104/279/9
f 118/91/9 119/103/9 112/142/9 111/118/9
f 84/123/9 85/147/9 78/106/9 77/102/9
f 91/295/9 92/176/9 85/147/9 84/123/9
f 98/299/9 99/323/9 92/176/9 91/295/9
f 105/303/9 106/185/9 99/323/9 98/299/9
f 112/142/9 113/166/9 106/185/9 105/303/9
f 119/103/9 120/107/9 113/166/9 112/142/9
f 85/147/9 86/171/9 79/110/9 78/106/9
f 92/176/9 93/175/9 86/171/9 85/147/9
f 99/323/9 100/347/9 93/175/9 92/176/9
f 106/185/9 107/77/9 100/347/9 99/323/9
f 113/166/9 114/80/9 107/77/9 106/185/9
f 120/107/9 121/84/9 114/80/9 113/166/9
f 86/171/9 87/127/9 80/2/9 79/110/9
f 93/175/9 94/131/9 87/127/9 86/171/9
f 100/347/9 101/371/9 94/131/9 93/175/9
f 107/77/9 108/78/9 101/371/9 100/347/9

